/* XPM */
static char * search_xpm[] = {
"16 16 121 2",
"  	c None",
". 	c #8499BC",
"+ 	c #77A1D0",
"@ 	c #77A6D6",
"# 	c #86A6C9",
"$ 	c #8C9AB5",
"% 	c #6999D1",
"& 	c #6CB8F2",
"* 	c #7BCCF9",
"= 	c #82D1F9",
"- 	c #7DD0FB",
"; 	c #83CAF1",
"> 	c #84A4C4",
", 	c #6392CB",
"' 	c #75C8FD",
") 	c #98E6FB",
"! 	c #A3EEFB",
"~ 	c #9AE6FB",
"{ 	c #89D6F6",
"] 	c #8FDEFC",
"^ 	c #96E3FB",
"/ 	c #8199B5",
"( 	c #62759B",
"_ 	c #6AB6F2",
": 	c #95E3FC",
"< 	c #BEFDFD",
"[ 	c #D1FEFD",
"} 	c #A6E9FB",
"| 	c #A8F1FC",
"1 	c #9EEBFB",
"2 	c #ABFBFE",
"3 	c #9AD3E1",
"4 	c #587BAC",
"5 	c #79CCFD",
"6 	c #9FEBFB",
"7 	c #D0FEFD",
"8 	c #D8F8FC",
"9 	c #ABEEFC",
"0 	c #BEFBFD",
"a 	c #B6FDFD",
"b 	c #BCFEFD",
"c 	c #B9FBFC",
"d 	c #68738C",
"e 	c #5481B9",
"f 	c #83D2FB",
"g 	c #8FDCF8",
"h 	c #9EE3F9",
"i 	c #A8EDFB",
"j 	c #C2FBFD",
"k 	c #CCFDFD",
"l 	c #C8FDFD",
"m 	c #CEFDFD",
"n 	c #D2FEFE",
"o 	c #626B85",
"p 	c #4F70A0",
"q 	c #84D7FE",
"r 	c #8CD6F8",
"s 	c #9CE6FB",
"t 	c #B2F6FC",
"u 	c #C9FEFD",
"v 	c #DBFDFD",
"w 	c #E1FDFD",
"x 	c #DBFBFC",
"y 	c #565B76",
"z 	c #3C4A72",
"A 	c #7AC5F0",
"B 	c #87D6FB",
"C 	c #95E1FB",
"D 	c #B0F8FD",
"E 	c #C2FEFD",
"F 	c #D6FDFD",
"G 	c #E8FDFD",
"H 	c #FEFEFE",
"I 	c #B0BECA",
"J 	c #5378A2",
"K 	c #96E9FE",
"L 	c #9EECFE",
"M 	c #AEF7FD",
"N 	c #C4FEFD",
"O 	c #F2FEFE",
"P 	c #E3EDF0",
"Q 	c #666984",
"R 	c #597CA1",
"S 	c #97DEF2",
"T 	c #B2FEFE",
"U 	c #C3FEFE",
"V 	c #D7FEFE",
"W 	c #BCD3DC",
"X 	c #686D86",
"Y 	c #6A6D8D",
"Z 	c #847678",
"` 	c #3C4869",
" .	c #566B86",
"..	c #5F768E",
"+.	c #55617C",
"@.	c #393B5B",
"#.	c #6F6A7A",
"$.	c #A7753C",
"%.	c #D27D19",
"&.	c #A65308",
"*.	c #CA9640",
"=.	c #FED774",
"-.	c #D88219",
";.	c #904708",
">.	c #7B4110",
",.	c #D3AE5F",
"'.	c #FED874",
").	c #D37F18",
"!.	c #7C3907",
"~.	c #65310E",
"{.	c #CCA860",
"].	c #FEDA73",
"^.	c #D58019",
"/.	c #682E08",
"(.	c #57290D",
"_.	c #CFAE63",
":.	c #E2B056",
"<.	c #6A4127",
"[.	c #592A0D",
"}.	c #6B4E39",
"|.	c #44425E",
"      . + @ # $                 ",
"    % & * = - ; >               ",
"  , ' ) ! ~ { ] ^ /             ",
"( _ : < [ } | 1 2 3             ",
"4 5 6 7 8 9 0 a b c d           ",
"e f g h i j k l m n o           ",
"p q r s t u m v w x y           ",
"z A B C D E F G H I             ",
"  J K L M N F O P Q             ",
"    R S T U V W X Y Z           ",
"      `  ...+.@.  #.$.%.&.      ",
"                    *.=.-.;.    ",
"                    >.,.'.).!.  ",
"                      ~.{.].^./.",
"                        (._.:.<.",
"                          [.}.|."};
