/* XPM */
static char * xmag_xpm[] = {
"16 16 138 2",
"  	c None",
". 	c #777571",
"+ 	c #93949A",
"@ 	c #979BAA",
"# 	c #8B8D97",
"$ 	c #605E5C",
"% 	c #201E1A",
"& 	c #99989A",
"* 	c #B2C0E2",
"= 	c #B0C5F2",
"- 	c #B4C8F4",
"; 	c #A9BEED",
"> 	c #99ACD5",
", 	c #848792",
"' 	c #2E2B27",
") 	c #9B9B9C",
"! 	c #B7CFF9",
"~ 	c #B5D6FF",
"{ 	c #D2E9FF",
"] 	c #DBF0FF",
"^ 	c #D3EBFF",
"/ 	c #B8DBFE",
"( 	c #97BAEB",
"_ 	c #7B828F",
": 	c #1B1915",
"< 	c #716E69",
"[ 	c #BED0ED",
"} 	c #A2D1FF",
"| 	c #BBE0FF",
"1 	c #C3E2FF",
"2 	c #C2E1FF",
"3 	c #BFE0FF",
"4 	c #BAE0FF",
"5 	c #A4D8FF",
"6 	c #89ACD7",
"7 	c #535251",
"8 	c #A09E9E",
"9 	c #B2D7FF",
"0 	c #94CBFF",
"a 	c #A4D2FF",
"b 	c #A9D5FF",
"c 	c #ABD6FF",
"d 	c #A8D3FF",
"e 	c #9FCFFF",
"f 	c #9DD3FF",
"g 	c #98C7F7",
"h 	c #6F7682",
"i 	c #110E0B",
"j 	c #AEB0B4",
"k 	c #B7DCFF",
"l 	c #9ECFFF",
"m 	c #99CDFF",
"n 	c #9ACDFF",
"o 	c #99CCFF",
"p 	c #A9D7FF",
"q 	c #B4DDFF",
"r 	c #7A8797",
"s 	c #1A1714",
"t 	c #A4A5A8",
"u 	c #CBE8FF",
"v 	c #BBDFFF",
"w 	c #B2DAFF",
"x 	c #AAD6FF",
"y 	c #ACD7FF",
"z 	c #B4DBFF",
"A 	c #C7E8FF",
"B 	c #C5E5FD",
"C 	c #757F8A",
"D 	c #13100E",
"E 	c #716E6D",
"F 	c #D3E5F4",
"G 	c #CEEDFF",
"H 	c #CCE8FF",
"I 	c #C7E5FF",
"J 	c #C8E6FF",
"K 	c #CDE7FF",
"L 	c #DBF5FF",
"M 	c #B7D0E0",
"N 	c #545759",
"O 	c #000201",
"P 	c #252322",
"Q 	c #AEB1B5",
"R 	c #DBF3FF",
"S 	c #D9F2FF",
"T 	c #D8F0FF",
"U 	c #D8EFFF",
"V 	c #D9F0FF",
"W 	c #E0F7FF",
"X 	c #D4ECFA",
"Y 	c #909CA4",
"Z 	c #1F1D1C",
"` 	c #413F3E",
" .	c #AFB3B7",
"..	c #D8E9F5",
"+.	c #DFF3FF",
"@.	c #E2F5FF",
"#.	c #E0F4FF",
"$.	c #CBDEE7",
"%.	c #97A0A8",
"&.	c #98A4A6",
"*.	c #967A7A",
"=.	c #821F17",
"-.	c #2A2826",
";.	c #767576",
">.	c #A0A5A8",
",.	c #A9B0B6",
"'.	c #989FA3",
").	c #6A6C6E",
"!.	c #2C2A28",
"~.	c #876B6B",
"{.	c #F5F4CB",
"].	c #F8C75F",
"^.	c #822D0F",
"/.	c #1E1C1B",
"(.	c #2A2928",
"_.	c #1F1F1D",
":.	c #080707",
"<.	c #6A1D14",
"[.	c #F48E34",
"}.	c #FFD43A",
"|.	c #F3C84C",
"1.	c #792F15",
"2.	c #7C1100",
"3.	c #F16B0A",
"4.	c #FFD53C",
"5.	c #F2C74D",
"6.	c #763217",
"7.	c #6F1200",
"8.	c #ED6A09",
"9.	c #FFDB3D",
"0.	c #EAB444",
"a.	c #341008",
"b.	c #691200",
"c.	c #DF6E10",
"d.	c #B0631C",
"e.	c #1A0A04",
"f.	c #2F0600",
"g.	c #170000",
"      . + @ # $ %               ",
"    & * = - ; > , '             ",
"  ) ! ~ { ] ^ / ( _ :           ",
"< [ } | 1 2 3 4 5 6 7           ",
"8 9 0 a b c d e f g h i         ",
"j k l m m n o n p q r s         ",
"t u v w x b y z A B C D         ",
"E F G H I I J K L M N O         ",
"P Q R S T U V W X Y Z           ",
"  `  ...+.@.#.$.%.&.*.=.        ",
"    -.;.>.,.'.).!.~.{.].^.      ",
"        /.(._.:.  <.[.}.|.1.    ",
"                    2.3.4.5.6.  ",
"                      7.8.9.0.a.",
"                        b.c.d.e.",
"                          f.g.  "};
