/* XPM */
static char * folder_html_xpm[] = {
"16 16 69 1",
" 	c None",
".	c #C3C3C3",
"+	c #ECECEC",
"@	c #E9E9E9",
"#	c #E8E8E8",
"$	c #F3F3F3",
"%	c #FFFFFF",
"&	c #AFAFAF",
"*	c #8F8F8F",
"=	c #FDFDFD",
"-	c #FCFCFC",
";	c #F9F9F9",
">	c #F6F6F6",
",	c #F4F4F4",
"'	c #F2F2F2",
")	c #F7F7F7",
"!	c #E7E7E7",
"~	c #E0E0E0",
"{	c #DBDBDB",
"]	c #D7D7D7",
"^	c #D2D2D2",
"/	c #CACACA",
"(	c #EEEEEE",
"_	c #D6D6D6",
":	c #D9D9D9",
"<	c #D5D5D5",
"[	c #D1D1D1",
"}	c #CCCCCC",
"|	c #C6C6C6",
"1	c #F0F0F0",
"2	c #A4A4A4",
"3	c #D8D8D8",
"4	c #CECECE",
"5	c #C1C1C1",
"6	c #7C7C7C",
"7	c #B4B4B4",
"8	c #C2C2C2",
"9	c #BBBBBB",
"0	c #EFEFEF",
"a	c #868686",
"b	c #878787",
"c	c #A8A8A8",
"d	c #C0C0C0",
"e	c #B7B7B7",
"f	c #909090",
"g	c #8E8E8E",
"h	c #979797",
"i	c #ABABAB",
"j	c #B2B2B2",
"k	c #AEAEAE",
"l	c #E6E6E6",
"m	c #999999",
"n	c #9B9B9B",
"o	c #949494",
"p	c #939393",
"q	c #E4E4E4",
"r	c #A6A6A6",
"s	c #A7A7A7",
"t	c #A5A5A5",
"u	c #A2A2A2",
"v	c #D3D3D3",
"w	c #B0B0B0",
"x	c #B3B3B3",
"y	c #ACACAC",
"z	c #9F9F9F",
"A	c #858585",
"B	c #8C8C8C",
"C	c #A1A1A1",
"D	c #2B2B2B",
"  ...........   ",
" .+@#+$%%%%%%&  ",
" .*******=%%%&  ",
" *-;>,$'$*=%%&  ",
" *)!~{]^/*>%%&  ",
" *(_:<[}|*1%%&  ",
" *#234/|5*+%%&  ",
" *@674|89*@07   ",
" *#abc5ded*$&   ",
" *!*fghijk*l&   ",
" *!mnnmoop*q&   ",
" *!2rstuno*q&   ",
" *vwxxjysz*eA   ",
" *BuyjjyCh*&    ",
"  ********D     ",
"                "};
